<svg id="Capa_1" data-name="Capa 1" xmlns="http://www.w3.org/2000/svg"  viewBox="0 0 448 447.98"><title>mute</title><path d="M352,16.1a16,16,0,0,0-9-14.4,15.68,15.68,0,0,0-17,1.9l-141.8,113L352,284.2Z" transform="translate(-0.01 -0.02)"/><path d="M443.3,420.7,27.3,4.7A16,16,0,0,0,4.7,27.3L105.4,128H96a32.52,32.52,0,0,0-32,32V288a32.09,32.09,0,0,0,32,32h74.2L326,444.5a16.59,16.59,0,0,0,9.9,3.5,17.8,17.8,0,0,0,7-1.6,16.15,16.15,0,0,0,9-14.4V374.6l68.7,68.7a15.93,15.93,0,0,0,22.6,0A15.79,15.79,0,0,0,443.3,420.7Z" transform="translate(-0.01 -0.02)"/></svg>
