<?xml version="1.0" encoding="utf-8"?>
<!-- Generator: Adobe Illustrator 23.0.3, SVG Export Plug-In . SVG Version: 6.00 Build 0)  -->
<svg version="1.1" id="Calque_1" xmlns="http://www.w3.org/2000/svg" xmlns:xlink="http://www.w3.org/1999/xlink" x="0px" y="0px"
	 viewBox="0 0 512 512" style="enable-background:new 0 0 512 512;" xml:space="preserve">
<path d="M483.5,0h-455C12.8,0,0,12.8,0,28.5v455C0,499.2,12.8,512,28.5,512h455c15.7,0,28.5-12.8,28.5-28.5v-455
	C512,12.8,499.2,0,483.5,0z M181,406h-60V196h60V406z M181,166h-60v-60h60V166z M391,406h-60V271.8c-26.3-30.4-60-12-60,14.2v120
	h-60V196h60v11.3c15.7-4.9,25.9-11.3,45-11.3c40.7,0,75,36.5,75,79.7V406z"/>
</svg>
