<svg id="Capa_1" data-name="Capa 1" xmlns="http://www.w3.org/2000/svg" viewBox="0 0 480 448.02"><title>volume</title><path d="M278.94,17.58A15.94,15.94,0,0,0,262,19.5L106.37,144H32A32.06,32.06,0,0,0,0,176V304a32,32,0,0,0,32,32h74.37L262,460.52a16,16,0,0,0,17,1.89A16,16,0,0,0,288,448V32A16,16,0,0,0,278.94,17.58Z" transform="translate(0 -15.99)"/><path d="M369,126.86a16,16,0,0,0-22.49,22.78,127.64,127.64,0,0,1,0,180.74A16,16,0,1,0,369,353.1c30.34-29.86,47-70.05,47-113.09S399.33,156.78,369,126.86Z" transform="translate(0 -15.99)"/><path d="M414.14,81.77a16,16,0,1,0-22.56,22.72,190.93,190.93,0,0,1,0,271,16,16,0,0,0,22.56,22.72,223,223,0,0,0,0-316.45Z" transform="translate(0 -15.99)"/></svg>